<?xml version="1.0" standalone="no"?>
<!DOCTYPE svg PUBLIC "-//W3C//DTD SVG 20010904//EN"
 "http://www.w3.org/TR/2001/REC-SVG-20010904/DTD/svg10.dtd">
<svg version="1.0" xmlns="http://www.w3.org/2000/svg"
 width="959.000000pt" height="606.000000pt" viewBox="0 0 959.000000 606.000000"
 preserveAspectRatio="xMidYMid meet">

<g transform="translate(0.000000,606.000000) scale(0.100000,-0.100000)"
fill="#000000" stroke="none">
<path d="M2045 4638 c-969 -1082 -1285 -1427 -1343 -1472 -104 -81 -274 -252
-351 -354 -238 -315 -361 -649 -348 -947 9 -200 56 -324 167 -435 77 -77 140
-113 246 -140 176 -45 377 -15 604 91 99 47 120 46 215 -4 224 -119 436 -490
519 -907 26 -132 46 -305 46 -402 0 -32 4 -58 9 -58 5 0 34 27 65 60 131 142
198 381 198 700 -1 551 -228 1112 -529 1307 -32 20 -60 38 -62 40 -6 4 80 126
133 187 210 242 658 493 1036 580 41 10 81 20 89 22 23 7 -26 51 -94 84 -320
157 -899 71 -1405 -210 -41 -23 -71 -38 -67 -33 4 4 157 121 339 258 l331 250
676 1280 c372 704 704 1333 739 1398 34 64 60 117 58 117 -2 0 -574 -636
-1271 -1412z m-1282 -2559 c5 -4 37 -10 70 -14 l60 -6 -48 -49 -48 -49 9 -66
c6 -36 7 -65 4 -65 -4 0 -31 13 -61 30 l-54 29 -52 -29 c-29 -17 -57 -30 -61
-30 -5 0 -4 28 3 63 l12 62 -50 51 -49 52 53 7 c82 10 83 11 114 76 l29 60 29
-58 c16 -32 34 -61 40 -64z"/>
<path d="M6995 3691 c-145 -66 -180 -247 -69 -358 24 -24 60 -47 83 -54 l41
-12 0 -789 0 -788 -67 1 c-38 0 -89 4 -115 8 -27 4 -48 4 -48 -1 0 -20 150
-163 214 -203 183 -113 456 -150 682 -91 30 8 54 13 54 11 0 -2 -88 -198 -195
-435 -107 -238 -192 -436 -189 -441 3 -5 69 -9 148 -9 l142 0 18 38 c10 20
110 242 223 492 113 250 207 457 208 459 2 2 116 -220 252 -493 l248 -496 161
0 c88 0 163 3 167 6 3 3 -130 278 -296 610 l-301 603 80 83 c259 267 407 591
421 925 6 143 -5 242 -39 347 -20 62 -78 189 -84 183 -2 -2 -12 -49 -23 -106
-22 -111 -70 -273 -80 -267 -3 2 -292 125 -641 274 -349 149 -647 276 -662
283 -22 9 -28 19 -28 42 0 44 -36 112 -76 146 -64 52 -157 65 -229 32z m960
-581 c352 -150 642 -274 645 -277 7 -7 -90 -194 -147 -283 -83 -127 -137 -194
-248 -309 -299 -308 -645 -492 -1027 -545 l-38 -5 0 793 0 792 35 13 c19 6 52
32 72 57 21 24 45 42 53 40 8 -2 303 -126 655 -276z"/>
<path d="M2715 2279 c-158 -23 -306 -93 -378 -181 -51 -63 -94 -161 -107 -245
-19 -122 -22 -120 101 -62 l106 51 7 60 c12 119 89 209 207 242 30 9 60 16 66
16 14 0 -138 -753 -164 -810 -33 -74 -63 -94 -137 -95 l-62 0 -87 -91 -87 -91
83 -6 c45 -4 177 -9 293 -13 l210 -7 82 94 82 94 -135 3 -136 3 50 55 c62 70
105 150 128 240 l18 69 47 3 46 3 73 -133 c119 -219 162 -288 213 -345 59 -65
91 -83 147 -83 60 0 120 34 210 120 l79 75 19 93 c10 50 15 92 12 92 -4 0 -33
-27 -66 -61 -69 -70 -146 -129 -168 -129 -26 0 -88 81 -189 248 -54 89 -98
165 -98 169 0 4 32 28 71 53 133 84 200 183 207 303 9 157 -69 235 -268 267
-77 12 -389 11 -475 -1z m388 -121 c21 -5 55 -24 75 -42 32 -30 36 -40 40 -94
8 -112 -43 -207 -147 -274 -39 -24 -55 -28 -118 -28 -52 0 -73 4 -73 13 0 14
79 415 85 435 5 14 61 10 138 -10z"/>
<path d="M4641 2275 c-157 -29 -297 -101 -362 -186 -62 -81 -108 -214 -109
-311 l0 -37 109 52 108 52 7 59 c8 77 37 137 89 181 42 36 131 75 171 75 l23
0 -77 -382 c-45 -224 -87 -405 -100 -437 -27 -61 -52 -76 -143 -87 -53 -6 -58
-10 -143 -95 -49 -49 -84 -89 -79 -89 6 0 154 -7 330 -15 176 -8 368 -15 426
-15 98 0 110 2 167 31 34 16 83 50 110 74 45 41 51 52 66 116 9 39 16 75 16
80 0 5 -28 -11 -62 -35 -109 -74 -130 -80 -318 -78 -91 1 -187 5 -214 8 l-48
6 50 52 c65 65 106 147 133 263 l21 93 57 -6 c31 -3 90 -10 131 -14 l75 -9 75
74 75 75 -193 0 c-147 0 -192 3 -192 13 0 29 70 371 78 379 12 12 215 -7 249
-24 26 -13 28 -18 28 -71 l-1 -57 58 0 57 0 36 113 c20 61 40 124 45 140 l9
27 -342 -1 c-240 -1 -364 -5 -416 -14z"/>
<path d="M6220 2203 l-81 -88 118 -5 c97 -4 118 -8 116 -20 -6 -49 -177 -895
-190 -940 -46 -163 -118 -224 -235 -199 -57 13 -106 55 -141 124 l-22 45 -85
-85 -84 -85 34 -29 c19 -17 64 -45 100 -63 63 -32 68 -33 190 -33 122 0 127 1
195 34 103 50 191 144 249 263 54 112 60 133 155 608 l76 375 56 3 c55 3 55 3
144 92 l90 90 -302 0 -301 0 -82 -87z"/>
<path d="M207 873 c-11 -11 -8 -64 8 -122 32 -123 109 -235 252 -371 145 -138
301 -233 488 -296 102 -35 119 -38 225 -38 101 -1 121 2 163 23 150 74 153
254 8 464 -59 84 -102 128 -108 110 -11 -30 -51 -80 -82 -100 -53 -36 -106
-46 -211 -40 -216 12 -483 141 -691 334 -25 24 -49 40 -52 36z m1078 -531 c11
-1 31 -5 45 -8 l25 -6 -34 -28 c-31 -26 -33 -31 -26 -69 8 -46 6 -47 -37 -25
-29 15 -34 15 -65 0 -46 -22 -46 -22 -38 24 6 36 4 42 -25 66 -36 31 -34 35
17 43 31 5 42 13 58 43 l19 37 21 -37 c11 -20 29 -38 40 -40z"/>
</g>
</svg>
